<mxfile host="65bd71144e">
    <diagram name="Page-1" id="efYkgYs00_tLd2PNozO3">
        <mxGraphModel dx="-791" dy="627" grid="1" gridSize="10" guides="1" tooltips="1" connect="1" arrows="1" fold="1" page="1" pageScale="1" pageWidth="827" pageHeight="1169" math="0" shadow="0">
            <root>
                <mxCell id="0"/>
                <mxCell id="1" parent="0"/>
                <mxCell id="GH7_EwWvfFFCplkIZbcH-1" value="" style="rounded=1;whiteSpace=wrap;html=1;absoluteArcSize=1;arcSize=14;strokeWidth=2;fillColor=#A9C4EB;strokeColor=#7EA6E0;fontColor=#000000;" parent="1" vertex="1">
                    <mxGeometry x="1670" y="60" width="790" height="402" as="geometry"/>
                </mxCell>
                <mxCell id="14" value="" style="edgeStyle=elbowEdgeStyle;elbow=horizontal;endArrow=classic;html=1;curved=0;rounded=0;endSize=8;startSize=8;strokeWidth=6;fontColor=#000000;strokeColor=#000000;" parent="1" edge="1">
                    <mxGeometry width="50" height="50" relative="1" as="geometry">
                        <mxPoint x="1671" y="312" as="sourcePoint"/>
                        <mxPoint x="1931" y="312" as="targetPoint"/>
                        <Array as="points">
                            <mxPoint x="1881" y="282"/>
                        </Array>
                    </mxGeometry>
                </mxCell>
                <mxCell id="51" value="&lt;font style=&quot;font-size: 30px;&quot;&gt;Pipeline&lt;/font&gt;" style="text;html=1;align=center;verticalAlign=middle;whiteSpace=wrap;rounded=0;fontColor=#000000;" parent="1" vertex="1">
                    <mxGeometry x="1680" y="70" width="120" height="39" as="geometry"/>
                </mxCell>
                <mxCell id="73" value="" style="verticalLabelPosition=bottom;html=1;verticalAlign=top;align=center;strokeColor=#000000;fillColor=#FFFFFF;shape=mxgraph.azure.cloud_service_package_file;labelBackgroundColor=none;strokeWidth=4;fontSize=30;fontColor=#000000;" parent="1" vertex="1">
                    <mxGeometry x="1721" y="275.5" width="62.05" height="73" as="geometry"/>
                </mxCell>
                <mxCell id="76" value="" style="group;fillColor=none;strokeColor=none;fontColor=#000000;" parent="1" vertex="1" connectable="0">
                    <mxGeometry x="1870" y="120" width="450" height="330" as="geometry"/>
                </mxCell>
                <mxCell id="22" value="" style="rounded=1;whiteSpace=wrap;html=1;absoluteArcSize=1;arcSize=14;strokeWidth=2;fillColor=#fad7ac;fontColor=#000000;strokeColor=#B46504;" parent="76" vertex="1">
                    <mxGeometry width="450" height="330" as="geometry"/>
                </mxCell>
                <mxCell id="23" value="" style="rounded=1;whiteSpace=wrap;html=1;absoluteArcSize=1;arcSize=14;strokeWidth=2;fillColor=#cdeb8b;fontColor=#000000;strokeColor=#97D077;fillStyle=solid;" parent="76" vertex="1">
                    <mxGeometry x="110" y="62" width="170" height="200" as="geometry"/>
                </mxCell>
                <mxCell id="24" value="" style="rounded=1;whiteSpace=wrap;html=1;absoluteArcSize=1;arcSize=14;strokeWidth=2;fillColor=#cdeb8b;fontColor=#000000;strokeColor=#97D077;" parent="76" vertex="1">
                    <mxGeometry x="130" y="77" width="170" height="200" as="geometry"/>
                </mxCell>
                <mxCell id="31" value="" style="rounded=1;whiteSpace=wrap;html=1;absoluteArcSize=1;arcSize=14;strokeWidth=2;fillColor=#cdeb8b;fontColor=#000000;strokeColor=#97D077;" parent="76" vertex="1">
                    <mxGeometry x="150" y="92" width="170" height="200" as="geometry"/>
                </mxCell>
                <mxCell id="35" value="" style="edgeStyle=elbowEdgeStyle;elbow=horizontal;endArrow=classic;html=1;curved=0;rounded=0;endSize=8;startSize=8;exitX=0;exitY=0.5;exitDx=0;exitDy=0;strokeWidth=6;fontColor=#000000;strokeColor=#000000;" parent="76" edge="1">
                    <mxGeometry width="50" height="50" relative="1" as="geometry">
                        <mxPoint x="11" y="192" as="sourcePoint"/>
                        <mxPoint x="111" y="142" as="targetPoint"/>
                        <Array as="points">
                            <mxPoint x="61" y="172"/>
                        </Array>
                    </mxGeometry>
                </mxCell>
                <mxCell id="36" value="" style="edgeStyle=elbowEdgeStyle;elbow=horizontal;endArrow=classic;html=1;curved=0;rounded=0;endSize=8;startSize=8;strokeWidth=6;fontColor=#000000;strokeColor=#000000;" parent="76" edge="1">
                    <mxGeometry width="50" height="50" relative="1" as="geometry">
                        <mxPoint x="31" y="192" as="sourcePoint"/>
                        <mxPoint x="151" y="241.99999999999977" as="targetPoint"/>
                        <Array as="points">
                            <mxPoint x="61" y="212"/>
                        </Array>
                    </mxGeometry>
                </mxCell>
                <mxCell id="37" value="" style="edgeStyle=elbowEdgeStyle;elbow=horizontal;endArrow=classic;html=1;curved=0;rounded=0;endSize=8;startSize=8;strokeWidth=6;fontColor=#000000;strokeColor=#000000;" parent="76" edge="1">
                    <mxGeometry width="50" height="50" relative="1" as="geometry">
                        <mxPoint x="1" y="192" as="sourcePoint"/>
                        <mxPoint x="131" y="192" as="targetPoint"/>
                        <Array as="points">
                            <mxPoint x="81" y="162"/>
                        </Array>
                    </mxGeometry>
                </mxCell>
                <mxCell id="41" value="" style="edgeStyle=elbowEdgeStyle;elbow=horizontal;endArrow=none;html=1;curved=0;rounded=0;endSize=8;startSize=8;exitX=1;exitY=0.75;exitDx=0;exitDy=0;strokeWidth=6;endFill=0;fontColor=#000000;strokeColor=#000000;" parent="76" source="31" edge="1">
                    <mxGeometry width="50" height="50" relative="1" as="geometry">
                        <mxPoint x="810" y="242" as="sourcePoint"/>
                        <mxPoint x="370" y="190" as="targetPoint"/>
                        <Array as="points">
                            <mxPoint x="370" y="200"/>
                        </Array>
                    </mxGeometry>
                </mxCell>
                <mxCell id="42" value="" style="edgeStyle=elbowEdgeStyle;elbow=horizontal;endArrow=none;html=1;curved=0;rounded=0;endSize=8;startSize=8;exitX=1;exitY=0.5;exitDx=0;exitDy=0;strokeWidth=6;endFill=0;fontColor=#000000;strokeColor=#000000;" parent="76" source="31" edge="1">
                    <mxGeometry width="50" height="50" relative="1" as="geometry">
                        <mxPoint x="810" y="182" as="sourcePoint"/>
                        <mxPoint x="370" y="192" as="targetPoint"/>
                    </mxGeometry>
                </mxCell>
                <mxCell id="43" value="" style="edgeStyle=elbowEdgeStyle;elbow=horizontal;endArrow=classic;html=1;curved=0;rounded=0;endSize=8;startSize=8;exitX=1;exitY=0.25;exitDx=0;exitDy=0;strokeWidth=6;entryX=1;entryY=0.627;entryDx=0;entryDy=0;entryPerimeter=0;fontColor=#000000;strokeColor=#000000;" parent="76" source="31" target="GH7_EwWvfFFCplkIZbcH-1" edge="1">
                    <mxGeometry width="50" height="50" relative="1" as="geometry">
                        <mxPoint x="820" y="162" as="sourcePoint"/>
                        <mxPoint x="510" y="192" as="targetPoint"/>
                        <Array as="points">
                            <mxPoint x="370" y="150"/>
                        </Array>
                    </mxGeometry>
                </mxCell>
                <mxCell id="32" value="" style="rounded=1;whiteSpace=wrap;html=1;absoluteArcSize=1;arcSize=14;strokeWidth=2;fillColor=#f8cecc;fontColor=#000000;strokeColor=#B85450;" parent="76" vertex="1">
                    <mxGeometry x="170" y="150" width="130" height="122" as="geometry"/>
                </mxCell>
                <mxCell id="62" value="&lt;font&gt;&lt;span style=&quot;font-size: 30px;&quot;&gt;Module&lt;/span&gt;&lt;/font&gt;" style="text;html=1;align=center;verticalAlign=middle;whiteSpace=wrap;rounded=0;fontColor=#000000;" parent="76" vertex="1">
                    <mxGeometry x="175" y="160" width="120" height="39" as="geometry"/>
                </mxCell>
                <mxCell id="65" value="&lt;font&gt;&lt;span style=&quot;font-size: 30px;&quot;&gt;Phase&lt;/span&gt;&lt;/font&gt;" style="text;html=1;align=center;verticalAlign=middle;whiteSpace=wrap;rounded=0;fontColor=#000000;" parent="76" vertex="1">
                    <mxGeometry x="150" y="100" width="120" height="39" as="geometry"/>
                </mxCell>
                <mxCell id="66" value="&lt;font style=&quot;font-size: 30px;&quot;&gt;Controller&lt;/font&gt;" style="text;html=1;align=center;verticalAlign=middle;whiteSpace=wrap;rounded=0;fontColor=#000000;" parent="76" vertex="1">
                    <mxGeometry x="10" y="10" width="140" height="39" as="geometry"/>
                </mxCell>
                <mxCell id="74" value="" style="verticalLabelPosition=bottom;html=1;verticalAlign=top;align=center;strokeColor=#000000;fillColor=#FFFFFF;shape=mxgraph.azure.cloud_service_package_file;labelBackgroundColor=none;strokeWidth=4;fontSize=30;fontColor=#000000;" parent="1" vertex="1">
                    <mxGeometry x="2350" y="277.5" width="62.05" height="73" as="geometry"/>
                </mxCell>
            </root>
        </mxGraphModel>
    </diagram>
</mxfile>